<svg xmlns="http://www.w3.org/2000/svg" width="16" height="16" viewBox="0 0 16 16"><path d="M 0.62109375 3 L 0.609375 3.015625 L 0.52734375 3.015625 A 0.50004788 0.50004788 0 0 0 0.02734375 3.515625 L 0.02734375 3.7480469 L 0 3.7832031 L 0.02734375 3.8046875 L 0.02734375 12.5 A 0.50004788 0.50004788 0 0 0 0.52734375 13 L 15.496094 13 A 0.50004788 0.50004788 0 0 0 15.998047 12.5 L 15.998047 3.8085938 L 16 3.8066406 L 15.998047 3.8046875 L 15.998047 3.515625 A 0.50004788 0.50004788 0 0 0 15.496094 3.015625 L 0.640625 3.015625 L 0.62109375 3 z M 1.9023438 4.015625 L 14.128906 4.015625 L 8.0195312 8.8632812 L 1.9023438 4.015625 z M 1.0253906 4.5976562 L 7.7109375 9.8945312 A 0.50004788 0.50004788 0 0 0 8.3300781 9.8945312 L 14.996094 4.6015625 L 14.996094 12 L 1.0253906 12 L 1.0253906 4.5976562 z " color="#000" font-family="sans-serif" font-weight="400" overflow="visible" white-space="normal" style="line-height:normal;text-indent:0;text-align:start;text-decoration-line:none;text-decoration-style:solid;text-decoration-color:#000;text-transform:none;block-progression:tb;isolation:auto;mix-blend-mode:normal"/></svg>